<svg id="fi_3990303" enable-background="new 0 0 512 512" height="512" viewBox="0 0 512 512" width="512" xmlns="http://www.w3.org/2000/svg"><g><path d="m436 72h-15v-57c0-4.151-1.721-8.117-4.752-10.954-3.032-2.836-7.097-4.287-11.246-4.013l-300 20c-7.879.525-14.002 7.07-14.002 14.967v37h-15c-8.284 0-15 6.716-15 15v60c0 8.284 6.716 15 15 15h16.23l28.824 336.281c.666 7.759 7.158 13.719 14.946 13.719h240c7.788 0 14.28-5.96 14.945-13.719l28.824-336.281h16.231c8.284 0 15-6.716 15-15v-60c0-8.284-6.716-15-15-15zm-315-22.967 270-18v40.967h-270zm241.23 432.967h-212.461l-2.571-30h217.604zm5.143-60h-222.746l-17.143-200h257.033zm19.714-230h-262.175l-2.572-30h267.318zm33.913-60h-330v-30h330z"></path><path d="m214.355 367.079c17.11 14.155 34.098 22.908 34.812 23.274 2.146 1.098 4.489 1.646 6.833 1.646s4.688-.549 6.833-1.646c.714-.366 17.701-9.119 34.812-23.274 24.898-20.597 37.522-41.932 37.522-63.412 0-28.489-23.178-51.667-51.667-51.667-9.801 0-19.319 2.849-27.5 8.061-8.181-5.212-17.699-8.061-27.5-8.061-28.489 0-51.667 23.178-51.667 51.667 0 21.48 12.624 42.815 37.522 63.412zm14.145-85.079c6.213 0 11.969 2.67 16.206 7.518 2.849 3.259 6.966 5.128 11.294 5.128s8.445-1.869 11.294-5.128c4.237-4.848 9.993-7.518 16.206-7.518 11.947 0 21.667 9.72 21.667 21.667 0 22.153-31.451 45.54-49.166 56.146-17.727-10.614-49.168-33.996-49.168-56.146 0-11.948 9.72-21.667 21.667-21.667z"></path></g></svg>