<svg id="fi_4150880" enable-background="new 0 0 508.838 508.838" height="512" viewBox="0 0 508.838 508.838" width="512" xmlns="http://www.w3.org/2000/svg"><path d="m427.086 178.838h-30.247c-5.563-23.697-11.863-38.507-14.079-45h-55.236c9.643-19.428 8.317-40.639-3.878-60.15-18.59-29.744-1.27-55.054-.524-56.116l-.075.104-24.241-17.676c-1.244 1.707-30.133 42.334-.6 89.588 10.258 16.413 5.986 31.402-7.729 44.25h-30.967c9.642-19.428 8.316-40.639-3.878-60.15-18.591-29.744-1.271-55.054-.525-56.116l-.075.104-24.24-17.676c-1.244 1.707-30.133 42.334-.6 89.588 10.258 16.413 5.987 31.402-7.729 44.25h-30.967c9.643-19.428 8.317-40.639-3.877-60.15-18.591-29.744-1.271-55.054-.525-56.116l-.075.104-24.24-17.676c-1.244 1.707-30.133 42.334-.6 89.588 7.051 11.281 7.617 21.513 1.78 32.2-2.918 5.344-6.799 9.512-9.509 12.05h-58.371c-31.528 72.142-34.305 198.997 23.59 285h-90.25v15c0 41.355 33.645 75 75 75h270c41.355 0 75-33.645 75-75v-15h-90.25c17.098-26.426 29.846-57.101 37.574-90h30.343c28.856 0 52.333-23.477 52.333-52.333v-45.334c0-28.857-23.477-52.333-52.333-52.333zm-65.515-15c4.292 13.297 7.578 27.001 9.874 41.033l-21.972 8.788c-14.922 5.967-25.134-3.218-38.861-7.496-38.24-15.295-58.191 16.719-81.262 7.495-11.118-3.036-32.292-19.033-61.142-7.494-13.673 4.262-23.96 13.452-38.855 7.493l-21.961-8.785c2.295-14.032 5.582-27.736 9.875-41.034zm12.848 315h-270c-19.556 0-36.239-12.539-42.43-30h80.493 193.874 80.492c-6.19 17.461-22.872 30-42.429 30zm-52.092-60h-165.816c-39.776-50.198-56.228-118.914-52.528-183.019l14.228 5.691c28.854 11.546 49.996-4.448 61.139-7.492 23.733-9.495 42.482 23.005 81.265 7.493 13.673-4.262 23.961-13.455 38.855-7.494 15.343 5.432 34.236 18.258 61.145 7.496l14.239-5.694c3.707 64.218-12.81 132.894-52.527 183.019zm127.092-142.333c0 12.314-10.019 22.333-22.333 22.333h-24.783c4.081-29.398 4.072-60.642.062-90h24.721c12.314 0 22.333 10.019 22.333 22.333z"></path></svg>