<svg id="fi_4436976" enable-background="new 0 0 512.003 512.003" height="512" viewBox="0 0 512.003 512.003" width="512" xmlns="http://www.w3.org/2000/svg"><g><path d="m141.745 178.014c2.558 1.705 5.447 2.521 8.307 2.521 4.847 0 9.604-2.346 12.494-6.681 4.596-6.893 2.733-16.206-4.16-20.801-5.958-3.972-9.376-10.54-9.376-18.019s3.418-14.047 9.376-18.019c14.236-9.491 22.735-25.284 22.735-42.247s-8.499-32.756-22.735-42.247c-6.893-4.594-16.206-2.732-20.801 4.161-4.596 6.893-2.733 16.206 4.16 20.801 5.958 3.972 9.376 10.272 9.376 17.285s-3.418 13.312-9.376 17.285c-14.236 9.491-22.735 25.559-22.735 42.981s8.499 33.49 22.735 42.98z"></path><path d="m231.745 178.014c2.558 1.705 5.447 2.521 8.307 2.521 4.847 0 9.604-2.346 12.494-6.681 4.596-6.893 2.733-16.206-4.16-20.801-5.958-3.972-9.376-10.54-9.376-18.019s3.418-14.047 9.376-18.019c14.236-9.491 22.735-25.284 22.735-42.247s-8.499-32.756-22.735-42.247c-6.893-4.594-16.206-2.732-20.801 4.161-4.596 6.893-2.733 16.206 4.16 20.801 5.958 3.972 9.376 10.272 9.376 17.285s-3.418 13.312-9.376 17.285c-14.236 9.491-22.735 25.559-22.735 42.981s8.499 33.49 22.735 42.98z"></path><path d="m321.745 178.014c2.558 1.705 5.447 2.521 8.307 2.521 4.847 0 9.604-2.346 12.494-6.681 4.596-6.893 2.733-16.206-4.16-20.801-5.958-3.972-9.376-10.54-9.376-18.019s3.418-14.047 9.376-18.019c14.236-9.491 22.735-25.284 22.735-42.247s-8.499-32.756-22.735-42.247c-6.893-4.594-16.206-2.732-20.801 4.161-4.596 6.893-2.733 16.206 4.16 20.801 5.958 3.972 9.376 10.272 9.376 17.285s-3.418 13.312-9.376 17.285c-14.236 9.491-22.735 25.559-22.735 42.981s8.499 33.49 22.735 42.98z"></path><path d="m316.428 331.063c0-16.958-6.07-32.367-17.086-43.382-.002-.002-.003-.003-.005-.005-.001-.001-.002-.002-.003-.003-.004-.004-.008-.007-.011-.01-12.959-12.966-31.299-18.867-51.657-16.611-19.707 2.192-39.022 11.861-54.388 27.227-17.604 17.603-27.699 40.444-27.699 62.667 0 16.958 6.07 32.367 17.094 43.39 11.166 11.167 26.287 17.091 43.195 17.091 2.775 0 5.602-.16 8.463-.482 19.686-2.156 39.005-11.821 54.398-27.214 17.603-17.604 27.699-40.445 27.699-62.668zm-101.938-11.571c10.567-10.567 23.527-17.182 36.485-18.623 1.695-.188 3.355-.281 4.976-.281 2.929 0 5.722.309 8.349.906l-67.796 67.796c-.607-2.636-.925-5.433-.925-8.345-.001-14.325 6.893-29.434 18.911-41.453zm53.026 53.025c-10.583 10.583-23.528 17.19-36.498 18.611-4.751.535-9.233.312-13.311-.614l67.796-67.796c.607 2.636.925 5.433.925 8.345 0 14.326-6.894 29.435-18.912 41.454z"></path><path d="m459.295 423.586c-33.611 16.806-70.854 26.447-108.404 28.144 12.353-8.767 23.458-19.196 32.998-30.96 71.334-4.069 128.114-62.956 128.114-134.767 0-24.813-20.187-45-45-45h-46v-15c0-8.284-6.716-15-15-15h-331c-8.284 0-15 6.716-15 15v90c0 44.073 17.341 85.686 48.827 117.173 6.867 6.867 14.215 13.06 21.966 18.547-38.04-1.714-75.515-11.352-109.085-28.137-7.409-3.705-16.419-.702-20.124 6.708s-.702 16.419 6.708 20.125c41.324 20.662 87.934 31.583 134.79 31.583h195.836c46.202 0 92.466-10.921 133.79-31.583 7.41-3.705 10.413-12.715 6.708-20.125s-12.713-10.414-20.124-6.708zm7.708-152.584c8.271 0 15 6.729 15 15 0 47.89-32.535 88.393-76.859 100.964 10.162-21.529 15.859-45.588 15.859-70.964v-45zm-241 181c-74.99 0-136-61.009-136-136v-75h301v75c0 29.438-9.335 56.718-25.176 79.002-1.361 1.26-2.485 2.767-3.305 4.453-24.725 31.955-63.278 52.545-106.519 52.545z"></path></g></svg>